SplineFontDB: 3.0
FontName: Sebastian-FigBass
FullName: Sebastian-FigBass
FamilyName: Sebastian
Weight: Standard

StartChar: ampersand
Encoding: 38 38 0
Width: 0
Flags: HW
HStem: -4 27<-34.5235 38.5331> 124 29<-33.4656 42.7986> 267 27<-7.4388 57.3829>
VStem: -106 57<49.9329 201.671> 51 56<28.3305 120.281> 57 66<209.782 265.936>
LayerCount: 2
Fore
SplineSet
8 124 m 0
 -18 124 -49 108 -49 78 c 0
 -49 44 -33 23 5 23 c 0
 38 23 51 44 51 74 c 0
 51 114 35 124 8 124 c 0
-34 207 m 0
 -48 207 -49 167 -49 154 c 0
 -49 143 -46 140 -41 140 c 0
 -37 140 -33 142 -27 144 c 0
 -14 149 3 153 16 153 c 0
 60 153 107 130 107 77 c 0
 107 32 64 -4 7 -4 c 0
 -62 -4 -106 54 -106 139 c 0
 -106 168 -99 194 -87 217 c 0
 -85 220 -84 223 -84 226 c 0
 -84 230 -88 234 -98 239 c 2
 -139 258 l 2
 -142 259 -146 261 -146 265 c 0
 -146 271 -138 284 -134 284 c 0
 -131 284 -128 283 -124 281 c 2
 -80 261 l 2
 -74 258 -69 256 -65 256 c 0
 -60 256 -55 258 -50 263 c 0
 -26 283 4 294 35 294 c 0
 83 294 123 271 123 239 c 0
 123 221 109 208 91 208 c 0
 71 208 57 220 57 240 c 0
 57 245 58 250 58 253 c 0
 58 262 49 267 34 267 c 0
 14 267 -2 260 -14 248 c 0
 -18 244 -21 241 -21 238 c 0
 -21 234 -18 232 -13 229 c 2
 54 198 l 2
 61 195 63 193 63 189 c 0
 63 182 57 170 50 170 c 0
 48 170 47 170 45 171 c 2
 -24 204 l 2
 -28 206 -31 207 -34 207 c 0
EndSplineSet
EndChar

StartChar: zero
Encoding: 48 48 2
Width: 0
Flags: W
HStem: -4 27<-30.1361 30.5792> 268 26<-30.1361 30.5792>
VStem: -118 64<58.296 233.251> 54 64<58.296 233.251>
LayerCount: 2
Fore
SplineSet
0 268 m 0
 -40 268 -54 222 -54 158 c 0
 -54 134 l 0
 -54 70 -40 23 0 23 c 0
 42 23 54 70 54 134 c 0
 54 158 l 0
 54 222 42 268 0 268 c 0
0 294 m 0
 76 294 118 220 118 146 c 0
 118 72 76 -4 0 -4 c 0
 -76 -4 -118 72 -118 146 c 0
 -118 220 -76 294 0 294 c 0
EndSplineSet
EndChar

StartChar: one
Encoding: 49 49 3
Width: 0
Flags: W
HStem: 0 28<-67.5056 -13.5772 40.5873 92.5056> 270 20G<-6 -1.5 31 36>
VStem: -13 53<28.0178 186.598>
LayerCount: 2
Fore
SplineSet
-11 283 m 2
 -8 287 -8 290 -4 290 c 0
 1 290 7 287 15 287 c 0
 23 287 28 290 34 290 c 0
 38 290 40 287 40 281 c 2
 40 52 l 2
 40 32 44 28 63 28 c 2
 83 28 l 2
 88 28 93 27 93 17 c 2
 93 11 l 2
 93 1 90 0 79 0 c 2
 -55 0 l 2
 -66 0 -68 1 -68 11 c 2
 -68 17 l 2
 -68 27 -63 28 -58 28 c 2
 -36 28 l 2
 -16 28 -13 34 -13 52 c 2
 -13 179 l 2
 -13 197 -23 199 -32 186 c 2
 -70 127 l 2
 -75 120 -81 121 -90 128 c 0
 -95 132 -93 137 -91 142 c 2
 -11 283 l 2
EndSplineSet
EndChar

StartChar: two
Encoding: 50 50 4
Width: 0
Flags: W
HStem: -4 56<-11.2173 79.3692> -4 21G<-106 -95.5> 267 27<-51.4432 30.1818>
VStem: -111 26<-3.88579 32.1856> -108 69<172.578 255.625> 45 60<161.215 259.114> 85 26<65.5358 105.952>
LayerCount: 2
Fore
SplineSet
85 89 m 0xa2
 88 102 90 107 100 106 c 0
 109 105 112 102 111 94 c 0
 106 58 89 -4 32 -4 c 0xa2
 -7 -4 -19 40 -53 40 c 0
 -72 40 -81 28 -85 10 c 0
 -87 -1 -90 -4 -101 -4 c 0
 -111 -4 -111 1 -111 11 c 0x72
 -111 62 -80 108 -14 137 c 0
 19 152 45 173 45 211 c 0
 45 250 23 267 -7 267 c 0
 -25 267 -40 263 -51 256 c 1
 -61 248 -61 240 -52 230 c 1
 -45 225 -39 214 -39 204 c 0
 -39 184 -55 170 -74 170 c 0
 -92 170 -108 184 -108 209 c 0
 -108 249 -67 294 -0 294 c 0
 55 294 105 259 105 208 c 4x6c
 105 167 75 142 31 125 c 0
 7 115 -18 108 -34 96 c 0
 -48 86 -46 77 -28 72 c 0
 10 62 13 52 42 52 c 0
 62 52 80 64 85 89 c 0xa2
EndSplineSet
EndChar

StartChar: three
Encoding: 51 51 5
Width: 0
Flags: W
HStem: -4 28<-43.43 34.868> 131 28<-28.9521 34.9229> 267 27<-43.5374 35.5574>
VStem: -107 69<30.238 102.876> -99 62<182.529 258.58> 48 60<30.9249 123.572 170.707 259.871>
LayerCount: 2
Fore
SplineSet
-11 159 m 2xf4
 29 159 49 173 49 217 c 0
 49 250 30 267 -1 267 c 0
 -15 267 -30 265 -41 259 c 0
 -55 250 -53 244 -44 230 c 0
 -40 225 -37 216 -37 211 c 0
 -37 199 -46 181 -68 181 c 0
 -86 181 -99 196 -99 218 c 0xec
 -99 259 -50 294 2 294 c 0
 58 294 105 260 105 213 c 0
 105 189 88 169 73 160 c 0
 62 153 58 143 70 136 c 0
 88 126 108 104 108 78 c 0
 108 23 51 -4 1 -4 c 0
 -62 -4 -107 31 -107 70 c 0
 -107 91 -89 106 -71 106 c 0
 -50 106 -38 90 -38 72 c 0
 -38 65 -41 59 -45 54 c 0
 -52 45 -53 35 -40 30 c 0
 -31 26 -19 24 -8 24 c 0
 40 24 48 49 48 78 c 0
 48 126 20 131 -11 131 c 2
 -13 131 l 2
 -25 131 -29 132 -29 143 c 0
 -29 155 -26 159 -16 159 c 2
 -11 159 l 2xf4
EndSplineSet
EndChar

StartChar: four
Encoding: 52 52 6
Width: 0
Flags: W
HStem: 0 28<-51.5056 -1.48867 52.4887 101.379> 87 28<-72.6248 -1.45471 52.4635 125.661>
VStem: -54 73<232.953 284.889> -1 53<28.0177 86.9963 115 181.645>
LayerCount: 2
Fore
SplineSet
-54 281 m 0xe0
 -52 290 -49 290 -45 290 c 0
 -39 290 -28 285 -16 285 c 0
 0 285 9 290 18 290 c 0
 29 290 21 277 19 272 c 0xe0
 -12 205 -49 172 -71 139 c 0
 -80 126 -84 115 -66 115 c 2
 -21 115 l 2
 -3 115 -1 119 -1 134 c 2
 -1 142 l 2
 -1 153 0 158 6 164 c 1
 18 180 24 184 37 201 c 0
 45 211 52 210 52 195 c 2
 52 137 l 2
 52 121 55 115 72 115 c 2
 117 115 l 2
 122 115 126 114 126 105 c 2
 126 97 l 2
 126 88 124 87 113 87 c 2
 74 87 l 2
 55 87 52 82 52 66 c 2
 52 50 l 2
 52 34 55 28 75 28 c 2
 93 28 l 2
 98 28 102 26 102 16 c 2
 102 12 l 2
 102 2 100 0 89 0 c 2
 -39 0 l 2
 -50 0 -52 1 -52 11 c 2
 -52 17 l 2
 -52 27 -47 28 -42 28 c 2
 -24 28 l 2
 -4 28 -1 34 -1 50 c 2
 -1 66 l 2xd0
 -1 84 -7 87 -23 87 c 2
 -117 87 l 2
 -123 87 -126 91 -126 96 c 0
 -126 100 -125 101 -123 104 c 0
 -82 172 -66 210 -54 281 c 0xe0
EndSplineSet
EndChar

StartChar: five
Encoding: 53 53 7
Width: 0
Flags: W
HStem: -4 28<-41.9264 24.5913> 155 28<-56.8203 27.6243>
VStem: -105 70<25.1504 98.2053> -86 29<179.746 234.388> 45 59<36.1664 145.302>
LayerCount: 2
Fore
SplineSet
-86 149 m 0xd8
 -84 214 -84 241 -84 281 c 0
 -84 287 -82 289 -78 289 c 0
 -72 289 -39 281 5 281 c 0
 35 281 73 289 79 289 c 0
 86 289 87 281 80 271 c 0
 54 236 16 228 -41 235 c 0
 -51 236 -56 231 -56 223 c 2
 -57 195 l 2xd8
 -57 181 -54 177 -40 179 c 0
 -27 181 -19 183 -1 183 c 0
 57 183 104 148 104 92 c 4
 104 42 66 -4 -8 -4 c 0
 -52 -4 -105 24 -105 65 c 0
 -105 84 -90 101 -70 101 c 0
 -48 101 -35 87 -35 68 c 0xe8
 -35 63 -37 58 -39 53 c 0
 -45 41 -48 30 -30 26 c 0
 -24 24 -18 24 -14 24 c 0
 25 26 45 48 45 92 c 0
 45 141 17 155 -11 155 c 0
 -32 155 -53 148 -71 142 c 0
 -75 140 -86 136 -86 149 c 0xd8
EndSplineSet
EndChar

StartChar: six
Encoding: 54 54 8
Width: 0
Flags: W
HStem: -4 27<-32.7282 37.793> 134 29<-33.4656 40.8525> 267 27<-19.8784 36.192>
VStem: -106 57<50.117 229.678> 33 69<202.161 266.542> 51 56<28.8958 129.06>
LayerCount: 2
Fore
SplineSet
-106 139 m 0xf4
 -106 228 -54 294 18 294 c 0
 66 294 102 267 102 235 c 0
 102 216 87 200 69 200 c 0
 49 200 33 211 33 233 c 0xf8
 33 247 37 248 37 256 c 0
 37 265 28 267 17 267 c 0
 -31 267 -49 220 -49 164 c 0
 -49 146 -41 148 -27 154 c 0
 -14 159 3 163 16 163 c 0
 60 163 107 134 107 80 c 4
 107 32 64 -4 7 -4 c 0
 -62 -4 -106 54 -106 139 c 0xf4
8 134 m 0
 -18 134 -49 118 -49 88 c 0
 -49 44 -33 23 5 23 c 0
 38 23 51 46 51 79 c 0xf4
 51 119 35 134 8 134 c 0
EndSplineSet
EndChar

StartChar: seven
Encoding: 55 55 9
Width: 0
Flags: HW
HStem: 192 45<-393.325 -355.786> 226 60<-474.407 -422.702> 274 20G<-517 -505.5 -317.5 -307.5> 274 20G<-517 -505.5 -317.5 -307.5>
VStem: -526 28<162.006 217.196 261.836 293.997> -485 82<2.1586 52.7049> -328 27<250.458 293.964>
LayerCount: 2
Fore
SplineSet
10 7 m 4
 10 3 7 -2 3 -2 c 4
 -7 -2 -15 2 -30 2 c 4
 -51 2 -57 -2 -65 -2 c 4
 -69 -2 -74 1 -72 8 c 4
 -45 88 12 107 51 170 c 4
 62 188 62 196 38 191 c 4
 34 190 29 189 23 189 c 4
 -8 189 -13 228 -47 228 c 4
 -71 228 -86 210 -86 179 c 4
 -86 170 -88 169 -100 169 c 4
 -112 169 -113 170 -113 178 c 6
 -113 286 l 6
 -113 293 -112 294 -98 294 c 4
 -87 294 -85 293 -85 282 c 6
 -85 263 l 6
 -85 249 -73 249 -64 261 c 4
 -50 279 -40 286 -21 286 c 4
 17 286 19 237 50 237 c 4
 70 237 81 253 85 279 c 4
 87 293 87 294 101 294 c 4
 111 294 113 293 112 282 c 4
 94 138 10 85 10 7 c 4
EndSplineSet
EndChar

StartChar: eight
Encoding: 56 56 10
Width: 0
Flags: W
HStem: -4 29<-58.6455 44.7843> 267 27<-48.0074 47.4333>
VStem: -110 33<41.6652 108.91> -103 41<195.912 257.421> 57 52<33.4875 103.646> 64 31<185.518 252.048>
LayerCount: 2
Fore
SplineSet
-77 74 m 0xe8
 -77 43 -46 25 -5 25 c 0
 40 25 58 45 57 66 c 0
 56 90 35 108 11 119 c 0
 -7 127 -20 128 -41 120 c 0
 -67 110 -77 94 -77 74 c 0xe8
64 219 m 0xd4
 64 247 41 267 2 267 c 0
 -38 267 -62 252 -62 226 c 0
 -62 201 -35 192 -5 178 c 0
 12 171 25 167 42 180 c 0
 56 190 64 203 64 219 c 0xd4
-76 158 m 0
 -91 171 -103 189 -103 215 c 0
 -103 264 -56 294 2 294 c 0
 51 294 95 264 95 219 c 0xd4
 95 203 87 187 76 174 c 1
 64 157 61 148 76 136 c 0
 93 122 109 103 109 78 c 0
 109 32 64 -4 -5 -4 c 0
 -61 -4 -110 23 -110 74 c 0xe8
 -110 96 -100 112 -82 128 c 0
 -70 138 -64 147 -76 158 c 0
EndSplineSet
EndChar

StartChar: nine
Encoding: 57 57 11
Width: 0
Flags: W
HStem: -4 28<-37.0889 15.3616> 127 27<-38.9232 31.1886> 267 27<-37.3842 32.2196>
VStem: -107 56<158.858 260.374> -106 68<24.6222 78.3438> 48 58<111.974 240.469>
LayerCount: 2
Fore
SplineSet
106 157 m 0xf4
 106 68 52 -4 -26 -4 c 0
 -62 -4 -106 11 -106 46 c 0
 -106 66 -94 81 -74 81 c 0
 -50 81 -38 63 -38 41 c 0xec
 -38 33 -36 24 -21 24 c 0
 21 24 44 67 48 118 c 0
 49 133 43 137 26 133 c 0
 12 129 -2 127 -17 127 c 0
 -65 127 -107 156 -107 207 c 0
 -107 258 -59 294 -10 294 c 0
 60 294 106 236 106 157 c 0xf4
-8 154 m 0
 14 154 48 168 48 200 c 0
 48 247 30 267 -4 267 c 0
 -37 267 -51 243 -51 210 c 0xf4
 -51 170 -35 154 -8 154 c 0
EndSplineSet
EndChar

StartChar: bracketleft
Encoding: 91 91 12
Width: 0
VWidth: 1145
Flags: HW
HStem: -53 30<-22.4521 52.4967> 313 30<-22.4521 52.4967>
VStem: -52.5 30<-22.9825 312.982>
LayerCount: 2
Fore
SplineSet
-22 296 m 0
 -22 -6 l 0
 -22 -17 -18 -23 -6 -23 c 0
 39 -23 l 0
 52 -23 53 -24 53 -39 c 0
 53 -52 52 -53 41 -53 c 0
 -37 -53 l 0
 -50 -53 -52 -51 -52 -38 c 0
 -52 328 l 0
 -52 341 -50 343 -37 343 c 0
 41 343 l 0
 52 343 53 342 53 329 c 0
 53 314 52 313 39 313 c 0
 -6 313 l 0
 -18 313 -22 307 -22 296 c 0
EndSplineSet
EndChar

StartChar: bracketright
Encoding: 93 93 13
Width: 0
VWidth: 1145
Flags: HW
HStem: -53 30<-52.4967 22.4521> 313 30<-52.4967 22.4521>
VStem: 22.5 30<-22.9825 312.982>
LayerCount: 2
Fore
SplineSet
22 -6 m 0
 22 296 l 0
 22 307 18 313 6 313 c 0
 -39 313 l 0
 -52 313 -53 314 -53 329 c 0
 -53 342 -52 343 -41 343 c 0
 37 343 l 0
 50 343 52 341 52 328 c 0
 52 -38 l 0
 52 -51 50 -53 37 -53 c 0
 -41 -53 l 0
 -52 -53 -53 -52 -53 -39 c 0
 -53 -24 -52 -23 -39 -23 c 0
 6 -23 l 0
 18 -23 22 -17 22 -6 c 0
EndSplineSet
EndChar

StartChar: uni0000
Encoding: -1 0 15
Width: 298
Flags: W
VStem: 0 42<-234.688 -141.013 -24.2178 111.484> 0 30<-485 -393.238> 249 29<-414.992 -295.488> 263 35<-790.022 -566.881>
LayerCount: 2
Fore
SplineSet
298 -676 m 0x10
 298 -765 262 -885 231 -885 c 0
 220 -885 218 -878 218 -868 c 0
 218 -851 263 -785 263 -675 c 0
 263 -578 228 -510 185 -462 c 0
 153 -427 93 -386 60 -386 c 0
 40 -386 30 -411 30 -485 c 0
 0 -485 l 0x50
 0 85 l 0
 0 101 11 112 26 112 c 0
 38 112 40 97 40 84 c 0
 40 9 54 -27 103 -70 c 0
 204 -156 278 -231 278 -372 c 0xa0
 278 -444 260 -462 260 -483 c 0
 260 -508 298 -559 298 -676 c 0x10
227 -418 m 0
 245 -418 249 -388 249 -364 c 0
 249 -240 118 -141 58 -141 c 0
 43 -141 42 -159 42 -174 c 0xa0
 42 -212 75 -261 116 -301 c 0
 198 -380 210 -418 227 -418 c 0
EndSplineSet
EndChar

StartChar: slash
Encoding: 47 47 16
Width: 0
Flags: HW
HStem: 192 44<-524.857 -499.786> 227 58<-629.185 -585.675> 274 20G<-671 -659.5 -461.5 -451.5> 274 20G<-671 -659.5 -461.5 -451.5>
VStem: -680 28<162.006 217.835 261.835 293.997> -629 82<2.1586 49.26> -472 27<250.458 293.964>
LayerCount: 2
Fore
SplineSet
14 7 m 0
 14 3 11 -2 7 -2 c 0
 -3 -2 -9 2 -24 2 c 0
 -45 2 -49 -2 -57 -2 c 0
 -61 -2 -66 1 -64 8 c 0
 -37 88 18 107 57 170 c 0
 68 188 66 198 42 193 c 0
 38 192 33 191 27 191 c 0
 23 191 19 192 15 193 c 0
 5 196 3 195 -2 185 c 2
 -37 117 l 2
 -42 106 -44 106 -52 110 c 2
 -58 113 l 2
 -67 118 -68 118 -63 127 c 2
 -23 206 l 2
 -19 213 -20 218 -27 222 c 0
 -34 226 -42 229 -51 229 c 0
 -75 229 -90 210 -90 179 c 0
 -90 170 -92 169 -104 169 c 0
 -116 169 -117 170 -117 178 c 2
 -117 286 l 2
 -117 293 -116 294 -102 294 c 0
 -91 294 -89 293 -89 282 c 2
 -89 263 l 2
 -89 249 -77 249 -68 261 c 0
 -54 279 -44 285 -25 285 c 0
 -16 285 -9 282 -2 278 c 1
 6 272 10 271 15 280 c 2
 47 344 l 2
 52 352 53 352 62 348 c 1
 67 345 l 1
 76 341 76 339 71 328 c 2
 35 258 l 2
 30 248 31 244 38 240 c 0
 42 237 47 236 52 236 c 0
 74 236 87 253 91 279 c 0
 93 293 93 294 107 294 c 0
 117 294 119 293 118 282 c 0
 100 138 14 85 14 7 c 0
EndSplineSet
EndChar

StartChar: colon
Encoding: 58 58 17
Width: 0
VWidth: 1510
Flags: HW
HStem: -115 31<-72.4992 41.4732> 1124 31<-72.4992 41.4732>
VStem: 41.5 31<-83.9956 1124>
LayerCount: 2
Fore
SplineSet
41 -67 m 0
 41 1107 l 0
 41 1118 37 1124 25 1124 c 0
 -59 1124 l 0
 -72 1124 -73 1125 -73 1140 c 0
 -73 1154 -72 1155 -61 1155 c 4
 57 1155 l 0
 70 1155 72 1153 72 1140 c 0
 72 -100 l 0
 72 -113 70 -115 57 -115 c 0
 -61 -115 l 0
 -72 -115 -73 -114 -73 -100 c 0
 -73 -85 -72 -84 -59 -84 c 0
 25 -84 l 0
 37 -84 41 -78 41 -67 c 0
EndSplineSet
EndChar

StartChar: semicolon
Encoding: 59 59 18
Width: 0
VWidth: 1510
Flags: HW
HStem: -115 31<-41.4732 72.4992> 1124 31<-41.4732 72.4992>
VStem: -72.5 31<-83.9956 1124>
LayerCount: 2
Fore
SplineSet
-41 1107 m 0
 -41 -67 l 0
 -41 -78 -37 -84 -25 -84 c 0
 59 -84 l 0
 72 -84 73 -85 73 -100 c 0
 73 -114 72 -115 61 -115 c 0
 -57 -115 l 0
 -70 -115 -72 -113 -72 -100 c 0
 -72 1140 l 0
 -72 1153 -70 1155 -57 1155 c 0
 61 1155 l 0
 72 1155 73 1154 73 1140 c 0
 73 1125 72 1124 59 1124 c 0
 -25 1124 l 0
 -37 1124 -41 1118 -41 1107 c 0
EndSplineSet
EndChar

StartChar: less
Encoding: 60 60 19
Width: 0
VWidth: 1510
Flags: W
VStem: -94 37<325.26 715.119>
LayerCount: 2
Fore
SplineSet
-57 520 m 0
 -57 166 66 -32 90 -78 c 0
 93 -83 94 -88 94 -93 c 0
 94 -101 90 -106 84 -106 c 0
 80 -106 75 -103 70 -95 c 0
 39 -43 -94 141 -94 520 c 0
 -94 900 39 1083 70 1135 c 0
 75 1143 80 1146 84 1146 c 0
 90 1146 94 1141 94 1133 c 0
 94 1128 93 1123 90 1118 c 0
 66 1072 -57 875 -57 520 c 0
EndSplineSet
EndChar

StartChar: greater
Encoding: 62 62 21
Width: 0
VWidth: 1510
Flags: W
VStem: 57 37<324.881 714.74>
LayerCount: 2
Fore
SplineSet
57 520 m 0
 57 874 -66 1072 -90 1118 c 0
 -93 1123 -94 1128 -94 1133 c 0
 -94 1141 -90 1146 -84 1146 c 0
 -80 1146 -75 1143 -70 1135 c 0
 -39 1083 94 899 94 520 c 0
 94 140 -39 -43 -70 -95 c 0
 -75 -103 -80 -106 -84 -106 c 0
 -90 -106 -94 -101 -94 -93 c 0
 -94 -88 -93 -83 -90 -78 c 0
 -66 -32 57 165 57 520 c 0
EndSplineSet
EndChar

StartChar: uni0000
Encoding: -1 0 22
Width: 276
Flags: HW
LayerCount: 2
Fore
SplineSet
30 152 m 0
 260 18 l 0
 270 12 276 8 276 2 c 0
 276 -2 270 -8 258 -14 c 0
 28 -148 l 0
 22 -152 16 -154 12 -154 c 0
 4 -154 0 -146 0 -132 c 0
 0 142 l 0
 0 154 4 158 10 158 c 0
 16 158 22 156 30 152 c 0
EndSplineSet
EndChar

StartChar: germandbls
Encoding: 223 223 41
Width: 0
Flags: W
HStem: 0 28<-193.506 -139.577 -85.4127 -33.4944 67.7051 136.104> 268 26<71.4995 132.358> 270 20G<-132 -127.5 -95 -90>
VStem: -139 53<28.0178 186.598> -17 64<60.0519 231.226> 156 64<58.296 233.251>
LayerCount: 2
Fore
SplineSet
-137 283 m 2xbc
 -134 287 -134 290 -130 290 c 0
 -125 290 -119 287 -111 287 c 0
 -103 287 -98 290 -92 290 c 0
 -88 290 -86 287 -86 281 c 2
 -86 52 l 2
 -86 32 -82 28 -63 28 c 2
 -43 28 l 2
 -38 28 -33 27 -33 17 c 2
 -33 11 l 2
 -33 1 -36 0 -47 0 c 2
 -181 0 l 2
 -192 0 -194 1 -194 11 c 2
 -194 17 l 2
 -194 27 -189 28 -184 28 c 2
 -162 28 l 2
 -142 28 -139 34 -139 52 c 2
 -139 179 l 2
 -139 197 -149 199 -158 186 c 2
 -196 127 l 2
 -201 120 -207 121 -216 128 c 0
 -221 132 -219 137 -217 142 c 2
 -137 283 l 2xbc
102 268 m 0xdc
 61 268 47 222 47 158 c 2
 47 134 l 2
 47 70 61 23 102 23 c 0
 143 23 156 70 156 134 c 2
 156 158 l 2
 156 222 143 268 102 268 c 0xdc
102 294 m 0
 178 294 220 220 220 146 c 0
 220 72 178 -4 102 -4 c 0
 26 -4 -17 72 -17 146 c 0
 -17 220 26 294 102 294 c 0
EndSplineSet
EndChar

StartChar: b
Encoding: 98 98 55
Width: 0
Flags: W
VStem: -70 35<179.002 371> -70 26<27.8756 143.492>
LayerCount: 2
Fore
SplineSet
-36 137 m 0x40
 -41 127 -44 111 -44 93 c 2
 -44 40 l 2
 -44 24 -35 20 -15 32 c 0
 24 55 38 84 31 118 c 0
 23 158 -22 163 -36 137 c 0x40
-32 361 m 0
 -32 317 -35 272 -35 193 c 0x80
 -35 182 -34 179 -24 179 c 0
 -11 179 3 183 21 183 c 0
 55 183 90 160 90 115 c 0
 90 58 32 29 -25 -6 c 2
 -48 -20 l 2
 -52 -23 -57 -26 -61 -26 c 0
 -65 -26 -70 -23 -70 -14 c 0x40
 -70 361 l 0x80
 -70 369 -69 371 -60 371 c 0
 -42 371 l 0
 -33 371 -32 369 -32 361 c 0
EndSplineSet
EndChar

StartChar: n
Encoding: 110 110 60
Width: 0
Flags: W
VStem: -71 28<99.3604 191.312 245.566 365.998> 44 28<-68.9788 51.3086 107.732 199.89>
LayerCount: 2
Fore
SplineSet
-71 358 m 4
 -71 366 -69 366 -55 366 c 4
 -45 366 -43 366 -43 358 c 4
 -43 271 l 6
 -43 242 -36 243 -13 247 c 6
 50 257 l 6
 67 260 72 259 72 244 c 6
 72 -60 l 6
 72 -68 67 -69 56 -69 c 7
 45 -69 44 -68 44 -59 c 6
 44 27 l 6
 44 55 38 54 14 50 c 6
 -54 39 l 6
 -71 36 -71 40 -71 56 c 6
 -71 358 l 4
46 185 m 6
 46 203 37 202 16 199 c 6
 -22 193 l 6
 -45 189 -45 181 -45 169 c 6
 -45 118 l 6
 -45 97 -38 97 -17 100 c 6
 20 106 l 6
 43 109 46 113 46 137 c 6
 46 185 l 6
EndSplineSet
EndChar

StartChar: x
Encoding: 120 120 62
Width: 0
Flags: W
HStem: 48 62<-90.1516 -29.138 29.0446 90.0906> 114 50<-24.5652 24.5652> 168 62<-90.0906 -29.0446 29.138 90.1516>
VStem: -91 62<48.9094 109.955 168.138 229.152> -25 50<114.435 163.565> 29 62<48.8484 109.862 168.045 229.091>
CounterMasks: 1 fc
LayerCount: 2
Fore
SplineSet
25 139 m 0
 25 124 40 110 73 110 c 0
 77 110 l 0
 86 110 90 109 90 100 c 0
 90 87 91 60 91 56 c 0
 91 51 90 48 83 48 c 0
 79 48 51 49 39 49 c 0
 31 49 29 53 29 62 c 0
 29 66 l 0
 29 96 15 114 0 114 c 0
 -15 114 -29 99 -29 66 c 0
 -29 62 l 0
 -29 53 -30 49 -39 49 c 0
 -52 49 -79 48 -83 48 c 0
 -88 48 -91 49 -91 56 c 0
 -91 60 -90 88 -90 100 c 0
 -90 108 -86 110 -77 110 c 0
 -73 110 l 0
 -43 110 -25 124 -25 139 c 0
 -25 154 -40 168 -73 168 c 0
 -77 168 l 0
 -86 168 -90 169 -90 178 c 0
 -90 191 -91 218 -91 222 c 0
 -91 227 -90 230 -83 230 c 0
 -79 230 -51 229 -39 229 c 0
 -31 229 -29 225 -29 216 c 0
 -29 212 l 0
 -29 182 -15 164 0 164 c 0
 15 164 29 179 29 212 c 0
 29 216 l 0
 29 225 30 229 39 229 c 0
 52 229 79 230 83 230 c 0
 88 230 91 229 91 222 c 0
 91 218 90 190 90 178 c 0
 90 170 86 168 77 168 c 0
 73 168 l 0
 43 168 25 154 25 139 c 0
EndSplineSet
EndChar

StartChar: quotedbl
Encoding: 34 34 65
Width: 0
Flags: W
HStem: -12 56<66.0015 111.989> -4 21G<-106 -95.5> -4 21G<-106 -95.5> 267 27<-54.8022 30.1818>
VStem: -111 68<6 88 173.857 242.766> -108 49<188.368 259.184> -22 29<-80.8281 -73> 45 60<170.21 259.251> 63 29<114 125.089>
LayerCount: 2
Fore
SplineSet
73 126 m 0x5a80
 79 126 92 119 92 114 c 0
 92 111 91 108 89 104 c 2
 70 63 l 2
 68 58 66 53 66 50 c 0
 66 46 68 44 74 44 c 0
 100 44 118 59 131 87 c 0
 136 97 139 99 145 99 c 0
 153 99 159 96 159 91 c 0
 159 89 158 88 158 87 c 0
 146 44 113 -12 56 -12 c 0
 37 -12 35 -13 30 -23 c 2
 7 -73 l 2
 4 -79 2 -82 -2 -82 c 0
 -8 -82 -22 -75 -22 -70 c 0
 -22 -68 -21 -67 -20 -64 c 2
 4 -12 l 2x9a80
 6 -7 8 -4 8 -1 c 0
 8 4 4 8 -4 15 c 0
 -18 27 -31 38 -46 38 c 0
 -66 38 -78 31 -85 10 c 0
 -89 -1 -90 -4 -101 -4 c 0
 -111 -4 -111 1 -111 11 c 0x5a80
 -111 62 -77 114 -14 147 c 0
 18 164 45 178 45 216 c 0
 45 250 23 267 -7 267 c 0
 -27 267 -59 262 -59 243 c 0
 -59 238 -56 233 -52 230 c 0
 -44 223 -39 214 -39 204 c 0
 -39 184 -55 170 -74 170 c 0
 -92 170 -108 184 -108 209 c 0
 -108 249 -67 294 0 294 c 0
 55 294 105 260 105 213 c 0x57
 105 174 74 152 31 135 c 0
 9 127 -13 118 -32 102 c 0
 -40 95 -43 90 -43 86 c 0
 -43 78 -27 76 -10 67 c 2
 15 54 l 2
 19 52 23 51 26 51 c 0
 33 51 37 58 41 67 c 2
 63 114 l 2
 67 123 68 126 73 126 c 0x5a80
EndSplineSet
EndChar

StartChar: dollar
Encoding: 36 36 66
Width: 0
Flags: W
HStem: 0 28<-51.5056 -1.48867 52.4887 101.379> 87 28<-72.6248 -1.45471 52.4635 166.525 195.554 291.661>
VStem: -54 73<232.953 284.889> -1 53<28.0177 86.9963 115 181.645> 167 28<-21.5056 86.1374 115.475 227.506>
LayerCount: 2
Fore
SplineSet
143 87 m 2xd8
 74 87 l 2
 55 87 52 82 52 66 c 2
 52 50 l 2
 52 34 55 28 75 28 c 2
 93 28 l 2
 98 28 102 26 102 16 c 2
 102 12 l 2
 102 2 100 0 89 0 c 2
 -39 0 l 2
 -50 0 -52 1 -52 11 c 2
 -52 17 l 2
 -52 27 -47 28 -42 28 c 2
 -24 28 l 2
 -4 28 -1 34 -1 50 c 2
 -1 66 l 2xd8
 -1 84 -7 87 -23 87 c 2
 -117 87 l 2
 -123 87 -126 91 -126 96 c 0
 -126 100 -125 101 -123 104 c 0
 -82 172 -66 210 -54 281 c 0
 -52 290 -49 290 -45 290 c 0
 -39 290 -28 285 -16 285 c 0
 0 285 9 290 18 290 c 0
 29 290 21 277 19 272 c 0xe8
 -12 205 -49 172 -71 139 c 0
 -80 126 -84 115 -66 115 c 2
 -21 115 l 2
 -3 115 -1 119 -1 134 c 2
 -1 142 l 2
 -1 153 0 158 6 164 c 1
 18 180 24 184 37 201 c 0
 45 211 52 210 52 195 c 2
 52 137 l 2
 52 121 55 115 72 115 c 2
 146 115 l 2
 160 115 167 119 167 135 c 2
 167 218 l 2
 167 223 168 228 178 228 c 2
 184 228 l 2
 194 228 195 225 195 214 c 2
 195 137 l 2
 195 121 199 115 214 115 c 2
 283 115 l 2
 288 115 292 114 292 105 c 2
 292 97 l 2
 292 88 290 87 279 87 c 2
 214 87 l 2
 199 87 195 82 195 69 c 2
 195 -9 l 2
 195 -20 194 -22 184 -22 c 2
 178 -22 l 2
 168 -22 167 -17 167 -12 c 2
 167 68 l 2
 167 83 159 87 143 87 c 2xd8
EndSplineSet
EndChar

StartChar: percent
Encoding: 37 37 67
Width: 0
Flags: HW
HStem: -4 28<-180.665 -117.882> 148 24<-200.077 -118.69> 172 111<-103.5 -47.5> 235 47<-198.997 -156.003 -127.625 -89.0312> 274 20G<-16.5 -14> 274 20G<-16.5 -14>
VStem: -248 69<24.3027 93.0469> -230 29<172.003 234.996> -98 59<36.5207 137.318>
LayerCount: 2
Fore
SplineSet
-56 172 m 0
 -40 172 -31 176 -11 176 c 0
 47 176 95 140 95 88 c 0
 95 42 57 -4 -17 -4 c 0
 -66 -4 -114 19 -114 60 c 0
 -114 79 -104 96 -82 96 c 0
 -58 96 -45 79 -45 57 c 0
 -45 49 -47 43 -47 37 c 0
 -47 24 -31 24 -23 24 c 0
 16 26 36 48 36 88 c 0
 36 134 7 148 -21 148 c 0
 -42 148 -63 141 -81 135 c 0
 -83 134 -86 133 -89 133 c 0
 -93 133 -96 135 -96 142 c 0
 -94 207 -93 241 -93 281 c 0
 -93 287 -91 289 -87 289 c 0
 -85 289 -49 282 -33 282 c 0
 -26 282 -22 284 -22 288 c 0
 -22 291 -25 297 -32 306 c 2
 -51 328 l 2
 -52 330 -54 332 -54 334 c 0
 -54 339 -42 350 -36 350 c 0
 -33 350 -31 347 -26 342 c 2
 11 298 l 2
 20 287 24 283 37 283 c 0
 71 283 117 294 118 294 c 0
 122 294 124 292 124 289 c 0
 124 285 123 281 120 276 c 1
 111 266 99 257 83 250 c 0
 71 245 67 240 67 235 c 0
 67 232 70 228 73 224 c 2
 96 196 l 2
 100 192 102 189 102 187 c 0
 102 182 89 172 84 172 c 0
 81 172 79 174 77 176 c 2
 36 224 l 2
 30 232 28 234 20 234 c 0
 10 234 -2 233 -12 233 c 0
 -26 233 -39 235 -53 235 c 0
 -61 235 -65 230 -65 223 c 2
 -67 188 l 2
 -67 176 -65 172 -56 172 c 0
EndSplineSet
EndChar

StartChar: numbersign
Encoding: 35 35 68
Width: 0
Flags: W
HStem: 34 54<-99 -58.0022> 62 56<59.0469 99> 175 56<-99 -59.0531> 203 56<58.003 99>
VStem: -58 26<-63.855 33.8616 100.781 175.269 243.469 347.93> 32 26<-50.9296 48.5312 117.999 191.219 259.093 360.855>
LayerCount: 2
Back
SplineSet
61 132 m 4x1c
 61 118 66 115 83 118 c 4
 95 120 99 118 99 110 c 4
 99 79 l 4
 99 68 97 66 85 63 c 4x5c
 66 59 62 55 62 41 c 4
 62 -10 63 -17 63 -35 c 4
 63 -40 62 -41 56 -41 c 4
 42 -41 l 4
 34 -41 34 -40 34 -34 c 4
 34 -17 35 -4 35 35 c 4
 35 50 28 51 16 49 c 6
 -20 43 l 6
 -31 40 -35 36 -35 18 c 4
 -35 -30 -34 -30 -34 -51 c 4
 -34 -59 -35 -60 -43 -60 c 4
 -57 -60 l 4
 -63 -60 -63 -58 -63 -52 c 4
 -63 -41 -61 -3 -61 20 c 4
 -61 31 -62 36 -80 33 c 4
 -95 30 -99 30 -99 41 c 4
 -99 70 l 4
 -99 82 -97 85 -83 87 c 4
 -64 90 -61 96 -61 108 c 4
 -61 160 l 4
 -61 176 -67 176 -83 174 c 4
 -95 172 -99 174 -99 180 c 4
 -99 214 l 4
 -99 224 -98 227 -85 229 c 4xac
 -67 232 -62 238 -62 251 c 4
 -62 302 -63 313 -63 331 c 4
 -63 336 -62 337 -56 337 c 4
 -42 337 l 4
 -34 337 -34 336 -34 330 c 4
 -34 313 -35 295 -35 256 c 4
 -35 241 -27 239 -16 242 c 6
 20 248 l 6
 32 250 35 255 35 273 c 4
 35 321 34 326 34 347 c 4
 34 355 35 356 43 356 c 4
 57 356 l 4
 62 356 63 354 63 348 c 4
 63 325 61 294 61 271 c 4
 61 261 64 256 82 259 c 4
 92 261 99 262 99 251 c 4
 99 222 l 4
 99 210 96 207 83 204 c 4
 64 200 61 192 61 183 c 4
 61 132 l 4x1c
35 179 m 4
 35 188 33.0996 194.448 18 192 c 6
 -19 186 l 6
 -34 183 -35 173 -35 163 c 4
 -35 112 l 4
 -35 103 -33 96 -18 99 c 6
 19 105 l 6
 34.0996 107.448 35 118 35 128 c 4
 35 179 l 4
EndSplineSet
Fore
SplineSet
58 132 m 0x1c
 58 118 63 115 80 118 c 0
 94 121 99 118 99 110 c 0
 99 79 l 0
 99 68 96 65 82 62 c 0x5c
 62 57 59 55 59 41 c 0
 59 -10 60 -27 60 -45 c 0
 60 -50 59 -51 53 -51 c 0
 39 -51 l 0
 31 -51 31 -50 31 -44 c 0
 31 -27 32 -4 32 35 c 0
 32 50 25 51 13 49 c 2
 -17 44 l 2
 -28 42 -32 37 -32 19 c 0
 -32 -29 -31 -34 -31 -55 c 0
 -31 -63 -32 -64 -40 -64 c 0
 -54 -64 l 0
 -60 -64 -60 -62 -60 -56 c 0
 -60 -45 -58 -2 -58 21 c 0
 -58 32 -61 37 -79 34 c 0
 -94 31 -99 31 -99 42 c 0
 -99 71 l 0
 -99 83 -96 86 -82 88 c 0
 -62 91 -58 97 -58 109 c 0
 -58 161 l 0
 -58 177 -64 178 -81 175 c 0
 -94 173 -99 175 -99 181 c 0
 -99 215 l 0
 -99 225 -96 229 -82 231 c 0xac
 -63 234 -59 239 -59 252 c 0
 -59 303 -60 324 -60 342 c 0
 -60 347 -59 348 -53 348 c 0
 -39 348 l 0
 -31 348 -31 347 -31 341 c 0
 -31 324 -32 296 -32 257 c 0
 -32 242 -24 241 -13 243 c 2
 17 248 l 2
 29 250 32 255 32 273 c 0
 32 321 31 331 31 352 c 0
 31 360 32 361 40 361 c 0
 54 361 l 0
 59 361 60 359 60 353 c 0
 60 330 58 294 58 271 c 0
 58 261 62 256 79 259 c 0
 93 261 99 262 99 251 c 0
 99 222 l 0
 99 210 94 206 80 203 c 0
 61 199 58 192 58 183 c 0
 58 132 l 0x1c
32 179 m 0
 32 188 30 194 15 192 c 2
 -16 187 l 2
 -31 184 -32 174 -32 164 c 0
 -32 113 l 0
 -32 104 -30 97 -15 100 c 2
 16 105 l 2
 31 107 32 118 32 128 c 0
 32 179 l 0
EndSplineSet
EndChar

StartChar: hyphen
Encoding: 45 45 70
Width: 0
Flags: W
HStem: 122 30<-155.999 155.999>
LayerCount: 2
Fore
SplineSet
156 137 m 0
 156 124 156 122 146 122 c 0
 -144 122 l 0
 -154 122 -156 124 -156 137 c 0
 -156 149 -154 152 -145 152 c 0
 145 152 l 0
 155 152 156 151 156 137 c 0
EndSplineSet
EndChar

StartChar: uni001A
Encoding: 26 26 75
Width: 1000
Flags: H
LayerCount: 2
Back
SplineSet
0 208 m 4
 0 216 1 216 16 216 c 4
 29 216 30 216 30 208 c 4
 30 121 l 4
 30 92 36 91 58 97 c 4
 117 114 l 4
 136 119 141 118 141 103 c 4
 141 -207 l 4
 141 -215 139 -216 125 -216 c 4
 110 -216 111 -215 111 -206 c 4
 111 -120 l 4
 111 -92 107 -91 83 -97 c 4
 25 -114 l 4
 3 -120 0 -119 0 -103 c 4
 0 208 l 4
113 29 m 4
 113 54 105 54 86 48 c 4
 51 37 l 4
 29 31 28 27 28 -2 c 4
 28 -29 l 4
 28 -53 35 -53 54 -47 c 4
 90 -37 l 4
 111 -31 113 -25 113 3 c 4
 113 29 l 4
EndSplineSet
EndChar

StartChar: parenleft
Encoding: 40 40 77
Width: 0
VWidth: 1140
Flags: W
VStem: -45.5 30<47.7174 232.283>
LayerCount: 2
Fore
SplineSet
-15.5 140 m 0
 -15.5 57 13.5 13 39.5 -28 c 0
 43.5 -34 45.5 -40 45.5 -44 c 0
 45.5 -51 41.5 -55 36.5 -55 c 0
 32.5 -55 26.5 -52 20.5 -45 c 0
 -13.5 -5 -45.5 53 -45.5 140 c 0
 -45.5 227 -13.5 285 20.5 325 c 0
 26.5 332 32.5 335 36.5 335 c 0
 41.5 335 45.5 331 45.5 324 c 0
 45.5 320 43.5 314 39.5 308 c 0
 13.5 267 -15.5 223 -15.5 140 c 0
EndSplineSet
EndChar

StartChar: parenright
Encoding: 41 41 78
Width: 0
VWidth: 1140
Flags: W
VStem: 15.5 30<47.7174 232.283>
LayerCount: 2
Fore
SplineSet
15.5 140 m 0
 15.5 223 -13.5 267 -39.5 308 c 0
 -43.5 314 -45.5 320 -45.5 324 c 0
 -45.5 331 -41.5 335 -36.5 335 c 0
 -32.5 335 -26.5 332 -20.5 325 c 0
 13.5 285 45.5 227 45.5 140 c 0
 45.5 53 13.5 -5 -20.5 -45 c 0
 -26.5 -52 -32.5 -55 -36.5 -55 c 0
 -41.5 -55 -45.5 -51 -45.5 -44 c 0
 -45.5 -40 -43.5 -34 -39.5 -28 c 0
 -13.5 13 15.5 57 15.5 140 c 0
EndSplineSet
EndChar

StartChar: braceleft
Encoding: 123 123 79
Width: 0
VWidth: 1330
Flags: W
VStem: -70 34<188.88 483.559>
LayerCount: 2
Fore
SplineSet
-70 336 m 0
 -70 522 7 666 44 713 c 0
 50 720 56 723 60 723 c 0
 66 723 70 719 70 712 c 0
 70 708 68 702 64 696 c 0
 38 653 -36 520 -36 336 c 0
 -36 153 38 19 64 -24 c 0
 68 -30 70 -36 70 -40 c 0
 70 -47 66 -51 60 -51 c 0
 56 -51 50 -48 44 -41 c 0
 7 6 -70 151 -70 336 c 0
EndSplineSet
EndChar

StartChar: braceright
Encoding: 125 125 80
Width: 0
VWidth: 1330
Flags: W
VStem: 36 34<186.441 481.12>
LayerCount: 2
Fore
SplineSet
70 334 m 0
 70 148 -7 4 -44 -43 c 0
 -50 -50 -56 -53 -60 -53 c 0
 -66 -53 -70 -49 -70 -42 c 0
 -70 -38 -68 -32 -64 -26 c 0
 -38 17 36 150 36 334 c 0
 36 517 -38 651 -64 694 c 0
 -68 700 -70 706 -70 710 c 0
 -70 717 -66 721 -60 721 c 0
 -56 721 -50 718 -44 711 c 0
 -7 664 70 519 70 334 c 0
EndSplineSet
EndChar

StartChar: comma
Encoding: 44 44 81
Width: 0
VWidth: 1335
Flags: W
HStem: -75 31<-35.9732 67.9992> 724 31<-35.9732 67.9992>
VStem: -67 135<-75 -44.0015 724.001 755> -67 31<-43.9956 723.996>
LayerCount: 2
Fore
SplineSet
-36 707 m 0xd0
 -36 -27 l 0xd0
 -36 -38 -32 -44 -20 -44 c 0
 54 -44 l 0
 67 -44 68 -46 68 -60 c 0
 68 -74 67 -75 56 -75 c 0
 -52 -75 l 0
 -65 -75 -67 -73 -67 -60 c 0
 -67 740 l 0
 -67 753 -65 755 -52 755 c 0
 56 755 l 0
 67 755 68 754 68 740 c 0xe0
 68 725 67 724 54 724 c 0
 -20 724 l 0
 -32 724 -36 718 -36 707 c 0xd0
EndSplineSet
EndChar

StartChar: period
Encoding: 46 46 82
Width: 0
VWidth: 1335
Flags: W
HStem: -75 31<-67.9992 35.9732> 724 31<-67.9992 35.9732>
VStem: -68 135<-75 -44.0008 724.002 755> 36 31<-43.9956 723.996>
LayerCount: 2
Fore
SplineSet
36 -27 m 0xd0
 36 707 l 0xd0
 36 718 32 724 20 724 c 0
 -54 724 l 0
 -67 724 -68 726 -68 740 c 0
 -68 754 -67 755 -56 755 c 0
 52 755 l 0
 65 755 67 753 67 740 c 0
 67 -60 l 0
 67 -73 65 -75 52 -75 c 0
 -56 -75 l 4
 -67 -75 -68 -74 -68 -60 c 0xe0
 -68 -45 -67 -44 -54 -44 c 0
 20 -44 l 0
 32 -44 36 -38 36 -27 c 0xd0
EndSplineSet
EndChar

StartChar: question
Encoding: 63 63 87
Width: 0
Flags: W
HStem: 125 28<-111.661 -14.5538 14.5538 111.661> 231 20G<-8 8>
VStem: -14 28<27.2571 124.76 153.289 250.651>
LayerCount: 2
Fore
SplineSet
-3 27 m 2
 -13 27 -14 29 -14 40 c 2
 -14 107 l 2
 -14 120 -18 125 -33 125 c 2
 -99 125 l 2
 -110 125 -112 126 -112 135 c 2
 -112 143 l 2
 -112 152 -108 153 -103 153 c 2
 -33 153 l 2
 -18 153 -14 159 -14 175 c 2
 -14 237 l 2
 -14 248 -13 251 -3 251 c 2
 3 251 l 2
 13 251 14 248 14 237 c 2
 14 175 l 2
 14 159 18 153 33 153 c 2
 103 153 l 2
 108 153 112 152 112 143 c 2
 112 135 l 2
 112 126 110 125 99 125 c 2
 33 125 l 2
 18 125 14 120 14 107 c 2
 14 40 l 2
 14 29 13 27 3 27 c 2
 -3 27 l 2
EndSplineSet
EndChar

StartChar: exclam
Encoding: 33 33 89
Width: 0
Flags: HW
HStem: 123 30<-101.928 101.928>
LayerCount: 2
Fore
SplineSet
-89 125 m 6
 -100 125 -102 126 -102 135 c 6
 -102 143 l 6
 -102 152 -101.125 153 -93 153 c 6
 93 153 l 6
 101.25 153 102 152 102 143 c 6
 102 135 l 6
 102 126 100 125 89 125 c 6
 -89 125 l 6
EndSplineSet
EndChar

StartChar: k
Encoding: 107 107 93
Width: 0
VWidth: 0
Flags: HW
LayerCount: 2
Fore
SplineSet
-8 164 m 0
 14 164 47 175 47 205 c 0
 47 248 30 267 -4 267 c 0
 -37 267 -51 245 -51 215 c 0
 -51 176 -35 164 -8 164 c 0
142 21 m 0
 142 16 135 1 131 1 c 0
 129 1 127 2 124 3 c 2
 75 26 l 2
 70 28 67 29 63 29 c 0
 57 29 52 26 43 20 c 0
 22 5 -4 -4 -34 -4 c 0
 -73 -4 -126 9 -126 45 c 0
 -126 65 -113 80 -92 80 c 0
 -68 80 -58 62 -57 39 c 0
 -57 29 -49 24 -29 24 c 0
 -14 24 -1 28 9 35 c 0
 15 40 18 43 18 47 c 0
 18 51 14 54 6 58 c 2
 -54 87 l 2
 -59 89 -61 91 -61 93 c 0
 -61 99 -54 113 -49 113 c 0
 -47 113 -44 112 -39 110 c 2
 21 82 l 2
 26 80 29 79 32 79 c 0
 45 79 48 118 48 131 c 0
 48 140 45 144 36 144 c 0
 34 144 30 144 26 143 c 0
 12 139 -2 137 -17 137 c 0
 -65 137 -107 162 -107 212 c 0
 -107 262 -59 294 -10 294 c 0
 60 294 106 236 106 157 c 0
 106 125 99 95 86 70 c 0
 83 65 82 62 82 59 c 0
 82 55 85 52 94 48 c 2
 133 30 l 2
 140 27 142 25 142 21 c 0
EndSplineSet
EndChar

StartChar: Iacute
Encoding: 205 205 139
Width: 0
VWidth: 2155
Flags: HW
HStem: -1010 31<302.027 435.999> 979 31<302.027 435.999>
VStem: 271 31<-978.996 978.996>
LayerCount: 2
Fore
SplineSet
-51 1499 m 0x924e80
 -51 -74 l 0
 -51 -85 -47 -91 -35 -91 c 0
 69 -91 l 0
 82 -91 83 -92 83 -107 c 0
 83 -121 82 -122 71 -122 c 0
 -67 -122 l 0
 -80 -122 -82 -120 -82 -107 c 0
 -82 1532 l 0
 -82 1545 -80 1547 -67 1547 c 0
 71 1547 l 0
 82 1547 83 1546 83 1532 c 0
 83 1517 82 1516 69 1516 c 0
 -35 1516 l 0
 -47 1516 -51 1510 -51 1499 c 0x924e80
EndSplineSet
EndChar

StartChar: Icircumflex
Encoding: 206 206 140
Width: 0
VWidth: 2155
Flags: HW
HStem: -1010 31<-435.999 -302.027> 979 31<-435.999 -302.027>
VStem: -302 31<-978.996 978.996>
LayerCount: 2
Fore
SplineSet
51 1499 m 0x924e80
 51 1510 47 1516 35 1516 c 0
 -69 1516 l 0
 -82 1516 -83 1517 -83 1532 c 0
 -83 1546 -82 1547 -71 1547 c 0
 67 1547 l 0
 80 1547 82 1545 82 1532 c 0
 82 -107 l 0
 82 -120 80 -122 67 -122 c 0
 -71 -122 l 0
 -82 -122 -83 -121 -83 -107 c 0
 -83 -92 -82 -91 -69 -91 c 0
 35 -91 l 0
 47 -91 51 -85 51 -74 c 0
 51 1499 l 0x924e80
EndSplineSet
EndChar

StartChar: Ntilde
Encoding: 209 209 141
Width: 0
Flags: HW
LayerCount: 2
Fore
SplineSet
87 86 m 0
 91 99 93 104 103 103 c 0
 112 102 116 99 114 91 c 0
 105 56 89 -4 32 -4 c 0
 -7 -4 -19 40 -53 40 c 0
 -72 40 -81 28 -85 10 c 0
 -87 -1 -90 -4 -101 -4 c 0
 -111 -4 -111 1 -111 11 c 0
 -111 60 -80 105 -14 134 c 0
 19 149 47 170 47 208 c 0
 47 227 41 241 31 251 c 0
 24 259 18 257 15 246 c 0
 -5 174 l 0
 -8 163 -9 161 -19 164 c 0
 -24 165 l 0
 -34 168 -34 169 -32 178 c 0
 -13 250 l 0
 -10 263 -10 268 -24 266 c 0
 -41 264 -60 256 -60 242 c 0
 -60 234 -55 228 -55 214 c 0
 -55 195 -66 180 -89 180 c 0
 -107 180 -121 194 -121 214 c 0
 -121 252 -81 290 -17 294 c 0
 -5 294 0 297 2 307 c 0
 15 357 l 0
 17 366 20 367 29 364 c 0
 35 362 l 0
 44 359 46 359 42 346 c 0
 30 304 l 0
 27 292 30 289 41 285 c 0
 79 271 107 241 107 205 c 0
 107 164 75 139 31 122 c 0
 7 112 -17 106 -33 94 c 0
 -46 84 -43 76 -27 72 c 0
 11 61 13 52 42 52 c 0
 62 52 79 61 87 86 c 0
EndSplineSet
EndChar

StartChar: Idieresis
Encoding: 207 207 142
Width: 0
VWidth: 2155
Flags: HW
LayerCount: 2
Fore
SplineSet
-69 710 m 0
 -69 235 80 -21 104 -67 c 0
 107 -72 108 -77 108 -82 c 0
 108 -90 104 -95 98 -95 c 0
 94 -95 89 -92 84 -84 c 0
 54 -32 -107 210 -107 710 c 0
 -107 1210 54 1452 84 1504 c 0
 89 1512 94 1515 98 1515 c 0
 104 1515 108 1510 108 1502 c 0
 108 1497 107 1492 104 1487 c 0
 80 1441 -69 1185 -69 710 c 0
EndSplineSet
EndChar

StartChar: Eth
Encoding: 208 208 143
Width: 0
VWidth: 2155
Flags: HW
LayerCount: 2
Fore
SplineSet
69 710 m 0
 69 1185 -80 1441 -104 1487 c 0
 -107 1492 -108 1497 -108 1502 c 0
 -108 1510 -104 1515 -98 1515 c 0
 -94 1515 -89 1512 -84 1504 c 0
 -54 1452 107 1210 107 710 c 0
 107 210 -54 -32 -84 -84 c 0
 -89 -92 -94 -95 -98 -95 c 0
 -104 -95 -108 -90 -108 -82 c 0
 -108 -77 -107 -72 -104 -67 c 0
 -80 -21 69 235 69 710 c 0
EndSplineSet
EndChar

StartChar: Ograve
Encoding: 210 210 144
Width: 0
Flags: HW
LayerCount: 2
Fore
SplineSet
-15 109 m 0
 -7 109 5 108 5 101 c 0
 5 99 5 96 4 92 c 0
 -6 34 l 0
 -6 29 l 0
 -6 24 -4 21 0 21 c 0
 2 21 4 21 6 22 c 0
 33 32 49 53 49 91 c 0
 49 143 19 158 -9 158 c 0
 -32 158 -52 151 -70 145 c 0
 -72 144 -75 143 -78 143 c 0
 -82 143 -86 145 -86 152 c 0
 -84 217 -84 241 -84 281 c 0
 -84 287 -82 289 -78 289 c 0
 -72 289 -38 281 6 281 c 0
 36 281 74 289 80 289 c 0
 83 289 85 287 85 283 c 0
 85 280 84 276 80 271 c 0
 60 244 32 233 -6 233 c 0
 -17 233 -30 235 -42 235 c 0
 -51 235 -56 230 -56 223 c 0
 -56 198 l 0
 -56 186 -55 182 -46 182 c 0
 -29 182 -20 186 0 186 c 0
 58 186 104 146 104 91 c 0
 104 44 70 -3 -1 -9 c 0
 -11 -10 -14 -13 -16 -22 c 0
 -24 -70 l 0
 -26 -79 -27 -81 -32 -81 c 0
 -41 -81 -53 -79 -53 -73 c 0
 -53 -72 -53 -70 -52 -68 c 0
 -44 -19 l 0
 -44 -16 l 0
 -44 -11 -48 -8 -55 -6 c 0
 -97 2 -134 24 -134 60 c 0
 -134 78 -122 94 -99 94 c 0
 -77 94 -65 80 -65 60 c 0
 -65 54 -67 45 -67 40 c 0
 -67 33 -55 21 -43 21 c 0
 -38 21 -36 25 -35 32 c 0
 -22 101 l 0
 -21 107 -20 109 -15 109 c 0
EndSplineSet
EndChar

StartChar: Oacute
Encoding: 211 211 145
Width: 0
Flags: HW
LayerCount: 2
Fore
SplineSet
8 148 m 0
 -18 148 -49 131 -49 98 c 0
 -49 91 -46 89 -42 89 c 0
 -40 89 -37 90 -34 91 c 0
 32 108 l 0
 42 111 47 114 47 120 c 0
 47 123 46 127 43 131 c 0
 36 143 25 148 8 148 c 0
-144 33 m 0
 -149 33 -154 47 -154 54 c 0
 -154 58 -151 59 -142 62 c 0
 -113 70 l 0
 -103 73 -99 76 -99 82 c 0
 -99 85 -100 88 -101 92 c 0
 -104 106 -106 122 -106 139 c 0
 -106 228 -54 294 18 294 c 0
 66 294 102 274 102 243 c 0
 102 225 90 208 69 208 c 0
 49 208 34 219 34 241 c 0
 34 249 35 251 35 257 c 0
 35 266 28 267 17 267 c 0
 -31 267 -49 220 -49 178 c 0
 -49 167 -46 164 -41 164 c 0
 -37 164 -33 166 -27 168 c 0
 -14 173 3 177 16 177 c 0
 45 177 75 166 92 142 c 0
 98 134 99 129 106 129 c 0
 108 129 111 130 114 131 c 0
 146 139 l 0
 149 140 152 140 154 140 c 0
 160 140 166 126 166 119 c 0
 166 116 164 115 157 113 c 0
 118 103 l 0
 110 101 107 99 107 90 c 0
 107 32 64 -4 7 -4 c 0
 -28 -4 -57 11 -76 37 c 0
 -81 43 -84 47 -90 47 c 0
 -93 47 -96 46 -100 45 c 0
 -138 34 l 0
 -140 33 -142 33 -144 33 c 0
5 23 m 0
 33 23 51 41 51 74 c 0
 51 80 49 82 44 82 c 0
 41 82 37 81 33 80 c 0
 -31 63 l 0
 -38 61 -42 59 -42 54 c 0
 -42 52 -41 49 -40 46 c 0
 -31 31 -17 23 5 23 c 0
EndSplineSet
EndChar

StartChar: Ocircumflex
Encoding: 212 212 146
Width: 0
Flags: HW
LayerCount: 2
Fore
SplineSet
39 69 m 0
 18 69 10 25 10 7 c 0
 10 3 7 -2 3 -2 c 0
 -7 -2 -15 2 -30 2 c 0
 -51 2 -57 -2 -65 -2 c 0
 -68 -2 -72 0 -72 5 c 2
 -72 8 l 1
 -65 30 -54 47 -42 62 c 0
 -37 68 -35 73 -35 76 c 0
 -35 81 -40 83 -49 85 c 2
 -104 94 l 2
 -113.099 95.4893 -116 97 -116 101 c 0
 -116 109 -113 123 -107 123 c 0
 -106 123 -104 123 -102 122 c 2
 -20 108 l 2
 -16 107 -12 107 -9 107 c 0
 -1 107 5 110 12 117 c 0
 29 132 44 148 57 170 c 0
 60 175 64 182 64 187 c 0
 64 191 61 194 55 194 c 0
 47 194 37 189 23 189 c 0
 -8 189 -13 228 -47 228 c 0
 -71 228 -86 210 -86 179 c 0
 -86 170 -88 169 -100 169 c 0
 -112 169 -113 170 -113 178 c 2
 -113 286 l 2
 -113 293 -112 294 -98 294 c 0
 -87 294 -85 293 -85 282 c 2
 -85 263 l 2
 -85 256 -82 252 -77 252 c 0
 -73 252 -68 255 -64 261 c 0
 -50 279 -40 286 -21 286 c 0
 17 286 19 237 50 237 c 0
 70 237 83 253 85 279 c 0
 86 293 87 294 101 294 c 0
 110 294 112 293 112 282 c 0
 112 208 84 158 56 115 c 0
 53 110 51 106 51 102 c 0
 51 98 55 95 62 94 c 2
 100 87 l 2
 107 86 109 85 109 80 c 0
 109 72 107 59 100 59 c 0
 98 59 95.0645 59.3057 91 60 c 2
 50 67 l 2
 45 68 42 69 39 69 c 0
EndSplineSet
EndChar

StartChar: Otilde
Encoding: 213 213 147
Width: 0
Flags: HW
LayerCount: 2
Fore
SplineSet
-8 138 m 0
 13 138 48 147 48 188 c 0
 48 195 46 197 41 197 c 0
 39 197 37 197 34 196 c 0
 -35 177 l 0
 -43 176 -47 173 -47 168 c 0
 -47 167 -46 165 -45 162 c 0
 -37 145 -25 138 -8 138 c 0
146 254 m 0
 152 254 157 238 157 232 c 0
 157 229 155 228 149 226 c 0
 111 216 l 0
 103 214 100 211 100 205 c 0
 100 204 100 201 101 199 c 0
 104 186 106 172 106 157 c 0
 106 68 52 -4 -26 -4 c 0
 -62 -4 -107 10 -107 44 c 0
 -107 64 -94 78 -74 78 c 0
 -50 78 -39 63 -37 41 c 0
 -36 33 -34 24 -21 24 c 0
 19 24 48 52 48 105 c 0
 48 114 44 118 36 118 c 0
 33 118 30 118 26 117 c 0
 12 113 -2 111 -17 111 c 0
 -48 111 -76 125 -92 149 c 0
 -97 155 -99 157 -105 157 c 0
 -107 157 -110 157 -113 156 c 0
 -146 147 l 0
 -149 146 -151 146 -153 146 c 0
 -158 146 -162 158 -162 165 c 0
 -162 171 -159 172 -150 175 c 0
 -119 183 l 0
 -108 186 -107 190 -107 199 c 0
 -107 259 -59 294 -10 294 c 0
 26 294 56 279 76 253 c 0
 83 245 86 241 92 241 c 0
 94 241 97 242 102 243 c 0
 138 252 l 0
 142 253 144 254 146 254 c 0
-4 267 m 0
 -33 267 -50 246 -50 214 c 0
 -50 208 -48 204 -43 204 c 0
 -42 204 -40 204 -38 205 c 0
 27 223 l 0
 36 225 42 229 42 234 c 0
 42 236 41 238 40 241 c 0
 31 260 17 267 -4 267 c 0
EndSplineSet
EndChar

StartChar: eacute
Encoding: 233 233 163
Width: 0
Flags: HW
LayerCount: 2
Fore
SplineSet
32 -4 m 0
 -7 -4 -19 40 -53 40 c 0
 -72 40 -81 28 -85 10 c 0
 -87 -1 -90 -4 -101 -4 c 0
 -111 -4 -111 1 -111 11 c 0
 -111 62 -80 108 -14 137 c 0
 19 152 45 173 45 211 c 0
 45 250 23 267 -7 267 c 0
 -25 267 -40 263 -51 256 c 1
 -61 248 -61 240 -52 230 c 1
 -45 225 -39 214 -39 204 c 0
 -39 184 -55 170 -74 170 c 0
 -92 170 -108 184 -108 209 c 0
 -108 249 -67 294 0 294 c 0
 55 294 105 259 105 208 c 0
 105 167 75 142 31 125 c 0
 7 115 -18 108 -34 96 c 0
 -48 86 -46.0664 76.7539 -28 72 c 0
 15.1523 60.6445 13.333 47 91.334 47 c 2
 137 47 l 2
 152 47 156 53 156 69 c 2
 156 141 l 2
 156 152 157 155 167 155 c 2
 173 155 l 2
 183 155 184 152 184 141 c 2
 184 69 l 2
 184 53 188 47 203 47 c 2
 278 47 l 2
 283 47 287 46 287 37 c 2
 287 29 l 2
 287 20 285 19 274 19 c 2
 203 19 l 2
 188 19 184 14 184 1 c 2
 184 -76 l 2
 184 -87 183 -89 173 -89 c 2
 167 -89 l 2
 157 -89 156 -87 156 -76 c 2
 156 1 l 2
 156 14 152 19 137 19 c 2
 90.001 19 l 2
 76.75 19 68.25 -4 32 -4 c 0
EndSplineSet
EndChar

StartChar: ecircumflex
Encoding: 234 234 164
Width: 0
Flags: HW
LayerCount: 2
Fore
SplineSet
-23.9922 266 m 2
 -69.9922 266 l 2
 -84.9922 266 -88.9922 261 -88.9922 248 c 2
 -88.9922 171 l 2
 -88.9922 160 -89.9922 158 -99.9922 158 c 2
 -105.992 158 l 2
 -115.992 158 -116.992 160 -116.992 171 c 2
 -116.992 248 l 2
 -116.992 261 -120.992 266 -135.992 266 c 2
 -206.992 266 l 2
 -217.992 266 -219.992 267 -219.992 276 c 2
 -219.992 284 l 2
 -219.992 293 -215.992 294 -210.992 294 c 2
 -135.992 294 l 2
 -120.992 294 -116.992 300 -116.992 316 c 2
 -116.992 388 l 2
 -116.992 399 -115.992 402 -105.992 402 c 2
 -99.9922 402 l 2
 -89.9922 402 -88.9922 399 -88.9922 388 c 2
 -88.9922 316 l 2
 -88.9922 300 -84.9922 294 -69.9922 294 c 2
 -17.9922 294 l 2
 62.0078 294 105.008 259 105.008 208 c 0
 105.008 167 75.0078 142 31.0078 125 c 0
 7.00781 115 -17.9922 108 -33.9922 96 c 0
 -47.9922 86 -45.9922 77 -27.9922 72 c 0
 10.0078 62 13.0078 52 42.0078 52 c 0
 62.0078 52 80.0078 64 85.0078 89 c 0
 88.0078 102 90.0078 107 100.008 106 c 0
 109.008 105 112.008 102 111.008 94 c 0
 106.008 58 89.0078 -4 32.0078 -4 c 0
 -6.99219 -4 -18.9922 40 -52.9922 40 c 0
 -71.9922 40 -80.9922 28 -84.9922 10 c 0
 -86.9922 -1 -89.9922 -4 -100.992 -4 c 0
 -110.992 -4 -110.992 1 -110.992 11 c 0
 -110.992 62 -79.9922 108 -13.9922 137 c 0
 19.0078 152 45.0078 173 45.0078 211 c 0
 45.0078 250 23.0078 266 -23.9922 266 c 2
EndSplineSet
EndChar

StartChar: edieresis
Encoding: 235 235 165
Width: 0
Flags: HW
LayerCount: 2
Fore
SplineSet
42 241 m 0
 20 232 -7 231 -41 235 c 0
 -51 236 -56 231 -56 223 c 2
 -57 195 l 2
 -57 181 -54 177 -40 179 c 0
 -27 181 -19 183 -1 183 c 0
 57 183 104 148 104 92 c 0
 104 42 66 -4 -8 -4 c 0
 -52 -4 -105 24 -105 65 c 0
 -105 84 -90 101 -70 101 c 0
 -48 101 -35 87 -35 68 c 0
 -35 63 -37 58 -39 53 c 0
 -45 41 -48 30 -30 26 c 0
 -24 24 -18 24 -14 24 c 0
 25 26 45 48 45 92 c 0
 45 141 17 155 -11 155 c 0
 -32 155 -53 148 -71 142 c 0
 -75 140 -86 136 -86 149 c 0
 -84 214 -84 241 -84 281 c 0
 -84 287 -82 289 -78 289 c 0
 -72 289 -39 281 5 281 c 0
 35 281 57 284 75 284 c 2
 126 284 l 2
 141 284 145 290 145 306 c 2
 145 383 l 2
 145 394 146 397 156 397 c 2
 162 397 l 2
 172 397 173 394 173 383 c 2
 173 306 l 2
 173 290 177 284 192 284 c 2
 267 284 l 2
 272 284 276 283 276 274 c 2
 276 266 l 2
 276 257 274 256 263 256 c 2
 192 256 l 2
 177 256 173 251 173 238 c 2
 173 156 l 2
 173 145 172 143 162 143 c 2
 156 143 l 2
 146 143 145 145 145 156 c 2
 145 238 l 2
 145 251 141 256 126 256 c 2
 89 256 l 2
 65 256 57 247 42 241 c 0
EndSplineSet
EndChar

StartChar: igrave
Encoding: 236 236 166
Width: 0
Flags: HW
LayerCount: 2
Fore
SplineSet
-53 24 m 2
 33 24 45 60.5 45 105 c 0
 45 141 19 154 -6 154 c 0
 -25 154 -43 148 -61 142 c 0
 -65 140 -76 136 -76 149 c 0
 -74 214 -74 241 -74 281 c 0
 -74 287 -72 289 -68 289 c 0
 -62 289 -29 281 15 281 c 0
 45 281 83 289 89 289 c 0
 96 289 97 281 90 271 c 0
 64 236 26 228 -31 235 c 0
 -41 236 -46 231 -46 223 c 2
 -47 195 l 2
 -47 181 -44.0449 177.348 -30 179 c 0
 -17.25 180.5 -12 182 4 182 c 0
 57 182 104 150 104 99 c 0
 104 47.5 70 -4 -47 -4 c 2
 -97 -4 l 2
 -112 -4 -116 -9 -116 -22 c 2
 -116 -89 l 2
 -116 -100 -117 -102 -127 -102 c 2
 -133 -102 l 2
 -143 -102 -144 -100 -144 -89 c 2
 -144 -22 l 2
 -144 -9 -148 -4 -163 -4 c 2
 -229 -4 l 2
 -240 -4 -242 -3 -242 6 c 2
 -242 14 l 2
 -242 23 -238 24 -233 24 c 2
 -163 24 l 2
 -148 24 -144 30 -144 46 c 2
 -144 108 l 2
 -144 119 -143 122 -133 122 c 2
 -127 122 l 2
 -117 122 -116 119 -116 108 c 2
 -116 46 l 2
 -116 30 -112 24 -97 24 c 2
 -53 24 l 2
EndSplineSet
EndChar

StartChar: iacute
Encoding: 237 237 167
Width: 0
Flags: HW
LayerCount: 2
Fore
SplineSet
60 266 m 2
 -20 266 -49 220 -49 164 c 0
 -49 146 -41 148 -27 154 c 0
 -14 159 3 163 16 163 c 0
 60 163 107 134 107 80 c 0
 107 32 64 -4 7 -4 c 0
 -62 -4 -106 54 -106 139 c 0
 -106 228 -46 294 52 294 c 2
 103 294 l 2
 118 294 122 300 122 316 c 2
 122 383 l 2
 122 394 123 397 133 397 c 2
 139 397 l 2
 149 397 150 394 150 383 c 2
 150 316 l 2
 150 300 154 294 169 294 c 2
 244 294 l 2
 249 294 253 293 253 284 c 2
 253 276 l 2
 253 267 251 266 240 266 c 2
 169 266 l 2
 154 266 150 261 150 248 c 2
 150 177 l 2
 150 166 149 164 139 164 c 2
 133 164 l 2
 123 164 122 166 122 177 c 2
 122 248 l 2
 122 261 118 266 103 266 c 2
 60 266 l 2
8 134 m 0
 -18 134 -49 118 -49 88 c 0
 -49 44 -33 23 5 23 c 0
 38 23 51 46 51 79 c 0
 51 119 35 134 8 134 c 0
EndSplineSet
EndChar

StartChar: icircumflex
Encoding: 238 238 168
Width: 0
Flags: HW
LayerCount: 2
Fore
SplineSet
-70 241 m 2
 -108 241 l 2
 -123 241 -127 236 -127 223 c 2
 -127 151 l 2
 -127 140 -128 138 -138 138 c 2
 -144 138 l 2
 -154 138 -155 140 -155 151 c 2
 -155 223 l 2
 -155 236 -159 241 -174 241 c 2
 -245 241 l 2
 -256 241 -258 242 -258 251 c 2
 -258 259 l 2
 -258 268 -254 269 -249 269 c 2
 -174 269 l 2
 -159 269 -155 275 -155 291 c 2
 -155 358 l 2
 -155 369 -154 372 -144 372 c 2
 -138 372 l 2
 -128 372 -127 369 -127 358 c 2
 -127 291 l 2
 -127 275 -123 269 -108 269 c 2
 -91 269 l 2
 -59 269 -56 286 -28 286 c 0
 15 286 19 237 50 237 c 0
 70 237 83 253 85 279 c 0
 86 293 90 294 101 294 c 0
 110 294 112 293 112 282 c 0
 112 141 10 85 10 7 c 0
 10 3 7 -2 3 -2 c 0
 -7 -2 -15 2 -30 2 c 0
 -51 2 -57 -2 -65 -2 c 0
 -69 -2 -74 1 -72 8 c 0
 -45 88 19 106 57 170 c 0
 62 178 70 194 55 194 c 0
 47 194 37 189 23 189 c 0
 -13 189 -21 241 -70 241 c 2
EndSplineSet
EndChar

StartChar: idieresis
Encoding: 239 239 170
Width: 0
Flags: HW
LayerCount: 2
Fore
SplineSet
-69 -4 m 2
 -104 -4 l 2
 -119 -4 -123 -9 -123 -22 c 2
 -123 -94 l 2
 -123 -105 -124 -107 -134 -107 c 2
 -140 -107 l 2
 -150 -107 -151 -105 -151 -94 c 2
 -151 -22 l 2
 -151 -9 -155 -4 -170 -4 c 2
 -241 -4 l 2
 -252 -4 -254 -3 -254 6 c 2
 -254 14 l 2
 -254 23 -250 24 -245 24 c 2
 -170 24 l 2
 -155 24 -151 30 -151 46 c 2
 -151 113 l 2
 -151 124 -150 127 -140 127 c 2
 -134 127 l 2
 -124 127 -123 124 -123 113 c 2
 -123 46 l 2
 -123 30 -119 24 -104 24 c 2
 -76 24 l 2
 13 24 44 67 48 118 c 0
 49 133 43 137 26 133 c 0
 12 129 -2 127 -17 127 c 0
 -65 127 -107 156 -107 207 c 0
 -107 258 -59 294 -10 294 c 0
 60 294 106 236 106 157 c 0
 106 68 39 -4 -69 -4 c 2
-8 154 m 0
 14 154 48 168 48 200 c 0
 48 247 30 267 -4 267 c 0
 -37 267 -51 243 -51 210 c 0
 -51 170 -35 154 -8 154 c 0
EndSplineSet
EndChar

StartChar: a
Encoding: 97 97 184
Width: 0
Flags: W
HStem: 351 20G<-110.5 -83.5 23.5 50.5>
VStem: -116 35<179.002 371> -116 26<27.8756 143.492> 18 35<179.076 371> 18 26<27.8756 36.0021>
LayerCount: 2
Fore
SplineSet
-78 361 m 0xc0
 -78 317 -81 272 -81 193 c 0
 -81 182 -80 179 -70 179 c 0
 -57 179 -43 183 -25 183 c 0
 -8 183 1 177 9 177 c 0
 15 177 18 182 18 195 c 2
 18 361 l 2
 18 369 19 371 28 371 c 2
 46 371 l 2
 55 371 56 369 56 361 c 0
 56 317 53 272 53 193 c 0xd0
 53 182 54 179 64 179 c 0
 77 179 91 183 109 183 c 0
 143 183 178 160 178 115 c 0
 178 58 120 29 63 -6 c 2
 40 -20 l 2
 36 -23 31 -26 27 -26 c 0
 23 -26 18 -23 18 -14 c 2
 18 28 l 2
 18 47 7 43 -4 36 c 0
 -24 22 -48 8 -71 -6 c 2
 -94 -20 l 2
 -98 -23 -103 -26 -107 -26 c 0
 -111 -26 -116 -23 -116 -14 c 2xa8
 -116 361 l 2
 -116 369 -115 371 -106 371 c 2
 -88 371 l 2
 -79 371 -78 369 -78 361 c 0xc0
-82 137 m 0
 -87 127 -90 111 -90 93 c 2
 -90 40 l 2xa0
 -90 24 -81 20 -61 32 c 0
 -22 55 -8 84 -15 118 c 0
 -23 158 -68 163 -82 137 c 0
52 137 m 0
 47 127 44 111 44 93 c 2
 44 40 l 2x88
 44 24 53 20 73 32 c 0
 112 55 126 84 119 118 c 0
 111 158 66 163 52 137 c 0
EndSplineSet
EndChar

